<svg width="71" height="39" viewBox="0 0 71 39" fill="none" xmlns="http://www.w3.org/2000/svg">
<path d="M5.98 10.748V21.668C5.98 22.76 6.24867 23.6007 6.786 24.19C7.32333 24.7793 8.112 25.074 9.152 25.074C10.192 25.074 10.9893 24.7793 11.544 24.19C12.0987 23.6007 12.376 22.76 12.376 21.668V10.748H16.822V21.642C16.822 23.2713 16.4753 24.6493 15.782 25.776C15.0887 26.9027 14.1527 27.752 12.974 28.324C11.8127 28.896 10.5127 29.182 9.074 29.182C7.63533 29.182 6.344 28.9047 5.2 28.35C4.07333 27.778 3.18067 26.9287 2.522 25.802C1.86333 24.658 1.534 23.2713 1.534 21.642V10.748H5.98ZM45.06 10.748L40.302 29H34.92L32.008 16.988L28.992 29H23.61L18.982 10.748H23.74L26.366 24.034L29.616 10.748H34.504L37.624 24.034L40.276 10.748H45.06ZM58.3397 19.64C59.3971 19.8653 60.2464 20.394 60.8877 21.226C61.5291 22.0407 61.8497 22.9767 61.8497 24.034C61.8497 25.5593 61.3124 26.7727 60.2377 27.674C59.1804 28.558 57.6984 29 55.7917 29H47.2897V10.748H55.5057C57.3604 10.748 58.8077 11.1727 59.8477 12.022C60.9051 12.8713 61.4337 14.024 61.4337 15.48C61.4337 16.5547 61.1477 17.4473 60.5757 18.158C60.0211 18.8687 59.2757 19.3627 58.3397 19.64ZM51.7357 18.132H54.6477C55.3757 18.132 55.9304 17.976 56.3117 17.664C56.7104 17.3347 56.9097 16.858 56.9097 16.234C56.9097 15.61 56.7104 15.1333 56.3117 14.804C55.9304 14.4747 55.3757 14.31 54.6477 14.31H51.7357V18.132ZM55.0117 25.412C55.7571 25.412 56.3291 25.2473 56.7277 24.918C57.1437 24.5713 57.3517 24.0773 57.3517 23.436C57.3517 22.7947 57.1351 22.292 56.7017 21.928C56.2857 21.564 55.7051 21.382 54.9597 21.382H51.7357V25.412H55.0117ZM66.5084 29.208C65.7284 29.208 65.0871 28.9827 64.5844 28.532C64.0991 28.064 63.8564 27.492 63.8564 26.816C63.8564 26.1227 64.0991 25.542 64.5844 25.074C65.0871 24.606 65.7284 24.372 66.5084 24.372C67.2711 24.372 67.8951 24.606 68.3804 25.074C68.8831 25.542 69.1344 26.1227 69.1344 26.816C69.1344 27.492 68.8831 28.064 68.3804 28.532C67.8951 28.9827 67.2711 29.208 66.5084 29.208Z" fill="#181C32"/>
</svg>
